<svg width="86" height="85" viewBox="0 0 86 85" fill="none" xmlns="http://www.w3.org/2000/svg">
<path d="M71.0776 41.9124C71.0776 27.8446 59.248 16.0599 44.1781 16.0599C29.1082 16.0599 17.2785 27.8446 17.2785 41.9124C17.2785 55.9803 29.1082 67.765 44.1781 67.765V75.5991C24.9843 75.5991 9.42466 60.5171 9.42466 41.9124C9.42466 23.3078 24.9843 8.22581 44.1781 8.22581C63.3719 8.22581 78.9315 23.3078 78.9315 41.9124C78.9315 60.5171 63.3719 75.5991 44.1781 75.5991V67.765C59.248 67.765 71.0776 55.9803 71.0776 41.9124Z" fill="url(#paint0_linear_3001_110)"/>
<path d="M78.1461 42.5C78.1461 23.4222 62.4788 7.8341 43 7.8341C23.5212 7.8341 7.85388 23.4222 7.85388 42.5C7.85388 61.5778 23.5212 77.1659 43 77.1659V85C19.2518 85 0 65.9721 0 42.5C0 19.0279 19.2518 0 43 0C66.7482 0 86 19.0279 86 42.5C86 65.9721 66.7482 85 43 85V77.1659C62.4788 77.1659 78.1461 61.5778 78.1461 42.5Z" fill="url(#paint1_linear_3001_110)"/>
<path d="M76.1826 42.6959C76.1826 24.8114 61.4859 10.1843 43.1963 10.1843C24.9068 10.1843 10.21 24.8114 10.21 42.6959C10.21 60.5803 24.9068 75.2074 43.1963 75.2074V83.0415C20.6409 83.0415 2.35616 64.9781 2.35616 42.6959C2.35616 20.4136 20.6409 2.35023 43.1963 2.35023C65.7518 2.35023 84.0365 20.4136 84.0365 42.6959C84.0365 64.9781 65.7518 83.0415 43.1963 83.0415V75.2074C61.4859 75.2074 76.1826 60.5803 76.1826 42.6959Z" fill="url(#paint2_linear_3001_110)"/>
<path d="M69.5069 42.6959C69.5069 57.1901 57.6393 68.9401 43 68.9401C28.3607 68.9401 16.4932 57.1901 16.4932 42.6959C16.4932 28.2016 28.3607 16.4516 43 16.4516C57.6393 16.4516 69.5069 28.2016 69.5069 42.6959Z" fill="url(#paint3_linear_3001_110)"/>
<path d="M61.653 42.6959C61.653 32.583 53.3569 24.2857 43 24.2857C32.6431 24.2857 24.347 32.583 24.347 42.6959C24.347 52.8087 32.6431 61.106 43 61.106V68.9401C28.3607 68.9401 16.4932 57.1901 16.4932 42.6959C16.4932 28.2016 28.3607 16.4516 43 16.4516C57.6393 16.4516 69.5069 28.2016 69.5069 42.6959C69.5069 57.1901 57.6393 68.9401 43 68.9401V61.106C53.3569 61.106 61.653 52.8087 61.653 42.6959Z" fill="url(#paint4_linear_3001_110)"/>
<path d="M65.5799 42.3041C65.5799 30.0209 55.5185 19.977 43 19.977C30.4815 19.977 20.4201 30.0209 20.4201 42.3041C20.4201 54.5874 30.4815 64.6313 43 64.6313V72.4654C26.1919 72.4654 12.5662 58.9618 12.5662 42.3041C12.5662 25.6465 26.1919 12.1429 43 12.1429C59.8081 12.1429 73.4338 25.6465 73.4338 42.3041C73.4338 58.9618 59.8081 72.4654 43 72.4654V64.6313C55.5185 64.6313 65.5799 54.5874 65.5799 42.3041Z" fill="url(#paint5_linear_3001_110)"/>
<g filter="url(#filter0_d_3001_110)">
<path d="M41.3287 4.56673L41.3674 4.57372V8.61776H40.7656V4H41.6138L44.0245 8.04054L43.9858 8.04754V4H44.5876V8.61776H43.7324L41.3287 4.56673Z" fill="url(#paint6_linear_3001_110)"/>
<path d="M8.34992 44.3782H7.59325L6.60784 40.4566H6.72398L5.73504 44.3782H4.97838L4 39.7604H4.68627L5.39366 43.5981H5.3831L6.38964 39.7604H6.93866L7.94519 43.5981H7.93463L8.64554 39.7604H9.32829L8.34992 44.3782Z" fill="url(#paint7_linear_3001_110)"/>
<path d="M78.2549 39.7604H81V40.3027H78.8497V41.8H80.9578V42.3282H78.8497V43.836H81V44.3782H78.2549V39.7604Z" fill="url(#paint8_linear_3001_110)"/>
<path d="M42.9299 76.2143C43.1974 76.2143 43.4273 76.2446 43.6197 76.3053C43.8144 76.3659 43.9669 76.4301 44.0772 76.4977C44.1898 76.5653 44.2567 76.6096 44.2778 76.6306L43.9681 77.1239C43.9329 77.0936 43.8707 77.0504 43.7816 76.9944C43.6924 76.9361 43.581 76.8848 43.4472 76.8405C43.3135 76.7939 43.161 76.7706 42.9897 76.7706C42.7246 76.7706 42.5146 76.8242 42.3598 76.9315C42.2073 77.0364 42.131 77.1857 42.131 77.3793C42.131 77.5099 42.1709 77.6253 42.2507 77.7256C42.3328 77.8235 42.4477 77.9133 42.5956 77.995C42.7434 78.0766 42.9158 78.1605 43.1129 78.2468C43.2748 78.3145 43.4332 78.3914 43.588 78.4777C43.7452 78.564 43.8872 78.6655 44.0139 78.7821C44.1429 78.8987 44.245 79.034 44.32 79.1879C44.3975 79.3418 44.4362 79.5191 44.4362 79.7196C44.4362 79.9179 44.3951 80.0963 44.313 80.2549C44.2332 80.4135 44.1194 80.5487 43.9716 80.6607C43.8262 80.7703 43.6561 80.8542 43.4613 80.9126C43.2666 80.9709 43.0566 81 42.8314 81C42.5475 81 42.2905 80.965 42.0606 80.8951C41.833 80.8251 41.6488 80.7516 41.5081 80.6747C41.3696 80.5977 41.2899 80.5499 41.2688 80.5312L41.5961 80.017C41.6242 80.0403 41.6758 80.0753 41.7509 80.1219C41.826 80.1662 41.9187 80.2129 42.0289 80.2619C42.1392 80.3108 42.2636 80.3528 42.402 80.3878C42.5404 80.4204 42.6882 80.4368 42.8454 80.4368C43.1598 80.4368 43.398 80.3668 43.5599 80.2269C43.7217 80.0869 43.8027 79.9074 43.8027 79.6881C43.8027 79.5202 43.7511 79.3756 43.6478 79.2543C43.5446 79.1331 43.4074 79.0246 43.2361 78.929C43.0648 78.8334 42.8759 78.7413 42.6695 78.6526C42.4583 78.557 42.2647 78.4521 42.0888 78.3378C41.9128 78.2235 41.7709 78.0871 41.6629 77.9285C41.5573 77.7676 41.5046 77.574 41.5046 77.3478C41.5046 77.1239 41.5679 76.9268 41.6946 76.7566C41.8236 76.5863 41.9961 76.4534 42.2119 76.3578C42.4301 76.2621 42.6695 76.2143 42.9299 76.2143Z" fill="url(#paint9_linear_3001_110)"/>
</g>
<path fill-rule="evenodd" clip-rule="evenodd" d="M42.9999 20.0274L46.7305 20.2237L42.8035 12.5662L42.9999 20.0274Z" fill="#3C2C0A"/>
<path d="M42.8035 12.5662L39.2693 20.2237L42.9999 20.0274L42.8035 12.5662Z" fill="#FBF5D3"/>
<path fill-rule="evenodd" clip-rule="evenodd" d="M42.9999 64.5982L39.2693 64.4018L43.1962 72.0594L42.9999 64.5982Z" fill="#3C2C0A"/>
<path d="M43.1962 72.0594L46.7305 64.4018L42.9999 64.5982L43.1962 72.0594Z" fill="#FBF5D3"/>
<path fill-rule="evenodd" clip-rule="evenodd" d="M20.0273 43L20.2237 39.2694L12.5662 43.1963L20.0273 43Z" fill="#FDF9CB"/>
<path d="M12.5662 43.1963L20.2237 46.7306L20.0273 43L12.5662 43.1963Z" fill="#9E7A37"/>
<path fill-rule="evenodd" clip-rule="evenodd" d="M65.3835 43L65.1872 46.7306L72.8447 42.8037L65.3835 43Z" fill="#FDF9CB"/>
<path d="M72.8447 42.8037L65.1872 39.2694L65.3835 43L72.8447 42.8037Z" fill="#9E7A37"/>
<line x1="25.5582" y1="17.8019" x2="28.6997" y2="22.9069" stroke="#836E3D"/>
<line x1="15.2014" y1="29.8418" x2="20.5816" y2="32.4844" stroke="#836E3D"/>
<line x1="17.3751" y1="58.5162" x2="22.2055" y2="54.9669" stroke="#836E3D"/>
<line x1="29.9732" y1="69.9962" x2="32.0371" y2="64.3685" stroke="#836E3D"/>
<line x1="56.2443" y1="69.7052" x2="52.9866" y2="64.6735" stroke="#836E3D"/>
<line x1="68.1718" y1="59.7119" x2="63.6782" y2="55.7447" stroke="#836E3D"/>
<line x1="71.3523" y1="31.4893" x2="65.7598" y2="33.6466" stroke="#836E3D"/>
<line x1="58.9295" y1="16.7892" x2="55.3799" y2="21.6194" stroke="#836E3D"/>
<defs>
<filter id="filter0_d_3001_110" x="3" y="4" width="79" height="80" filterUnits="userSpaceOnUse" color-interpolation-filters="sRGB">
<feFlood flood-opacity="0" result="BackgroundImageFix"/>
<feColorMatrix in="SourceAlpha" type="matrix" values="0 0 0 0 0 0 0 0 0 0 0 0 0 0 0 0 0 0 127 0" result="hardAlpha"/>
<feOffset dy="2"/>
<feGaussianBlur stdDeviation="0.5"/>
<feComposite in2="hardAlpha" operator="out"/>
<feColorMatrix type="matrix" values="0 0 0 0 0 0 0 0 0 0 0 0 0 0 0 0 0 0 0.25 0"/>
<feBlend mode="normal" in2="BackgroundImageFix" result="effect1_dropShadow_3001_110"/>
<feBlend mode="normal" in="SourceGraphic" in2="effect1_dropShadow_3001_110" result="shape"/>
</filter>
<linearGradient id="paint0_linear_3001_110" x1="43" y1="0" x2="43" y2="85" gradientUnits="userSpaceOnUse">
<stop stop-color="#A27D37"/>
<stop offset="1" stop-color="#A9A270"/>
</linearGradient>
<linearGradient id="paint1_linear_3001_110" x1="43" y1="0" x2="43" y2="85" gradientUnits="userSpaceOnUse">
<stop stop-color="#5F5A42"/>
<stop offset="1" stop-color="#674E1D"/>
</linearGradient>
<linearGradient id="paint2_linear_3001_110" x1="43" y1="0" x2="43" y2="85" gradientUnits="userSpaceOnUse">
<stop stop-color="#616161"/>
<stop offset="1"/>
</linearGradient>
<linearGradient id="paint3_linear_3001_110" x1="43.3185" y1="13.6381" x2="43.3185" y2="70.4104" gradientUnits="userSpaceOnUse">
<stop stop-color="#FEF9D1"/>
<stop offset="1" stop-color="#FBAD66"/>
</linearGradient>
<linearGradient id="paint4_linear_3001_110" x1="43" y1="0" x2="43" y2="85" gradientUnits="userSpaceOnUse">
<stop stop-color="#E8DE9D"/>
<stop offset="1" stop-color="#593E2C"/>
</linearGradient>
<linearGradient id="paint5_linear_3001_110" x1="43" y1="12.1429" x2="43" y2="72.4654" gradientUnits="userSpaceOnUse">
<stop stop-color="#593E2C"/>
<stop offset="1" stop-color="#524A38"/>
</linearGradient>
<linearGradient id="paint6_linear_3001_110" x1="42.9557" y1="75.8629" x2="42.9557" y2="82.8595" gradientUnits="userSpaceOnUse">
<stop stop-color="#DEC590"/>
<stop offset="1" stop-color="#786B4E"/>
</linearGradient>
<linearGradient id="paint7_linear_3001_110" x1="42.9557" y1="75.8629" x2="42.9557" y2="82.8595" gradientUnits="userSpaceOnUse">
<stop stop-color="#DEC590"/>
<stop offset="1" stop-color="#786B4E"/>
</linearGradient>
<linearGradient id="paint8_linear_3001_110" x1="42.9557" y1="75.8629" x2="42.9557" y2="82.8595" gradientUnits="userSpaceOnUse">
<stop stop-color="#DEC590"/>
<stop offset="1" stop-color="#786B4E"/>
</linearGradient>
<linearGradient id="paint9_linear_3001_110" x1="42.9557" y1="75.8629" x2="42.9557" y2="82.8595" gradientUnits="userSpaceOnUse">
<stop stop-color="#DEC590"/>
<stop offset="1" stop-color="#786B4E"/>
</linearGradient>
</defs>
</svg>
