<svg width="14" height="15" viewBox="0 0 14 15" fill="none" xmlns="http://www.w3.org/2000/svg">
<g clip-path="url(#clip0_1430_107)">
<path d="M5.25008 13.75C5.57225 13.75 5.83341 13.4702 5.83341 13.125C5.83341 12.7798 5.57225 12.5 5.25008 12.5C4.92792 12.5 4.66675 12.7798 4.66675 13.125C4.66675 13.4702 4.92792 13.75 5.25008 13.75Z" stroke="#FFF09A" stroke-linecap="round" stroke-linejoin="round"/>
<path d="M11.6666 13.75C11.9888 13.75 12.2499 13.4702 12.2499 13.125C12.2499 12.7798 11.9888 12.5 11.6666 12.5C11.3444 12.5 11.0833 12.7798 11.0833 13.125C11.0833 13.4702 11.3444 13.75 11.6666 13.75Z" stroke="#FFF09A" stroke-linecap="round" stroke-linejoin="round"/>
<path d="M0.583252 0.625H2.91659L4.47992 8.99375C4.53326 9.2815 4.67936 9.53997 4.89265 9.72394C5.10594 9.9079 5.37283 10.0056 5.64659 10H11.3166C11.5903 10.0056 11.8572 9.9079 12.0705 9.72394C12.2838 9.53997 12.4299 9.2815 12.4833 8.99375L13.4166 3.75H3.49992" stroke="#FFF09A" stroke-linecap="round" stroke-linejoin="round"/>
</g>
<defs>
<clipPath id="clip0_1430_107">
<rect width="14" height="15" fill="white"/>
</clipPath>
</defs>
</svg>
